<?xml version="1.0" encoding="utf-8"?>
<!-- Generator: Adobe Illustrator 16.0.0, SVG Export Plug-In . SVG Version: 6.00 Build 0)  -->
<!DOCTYPE svg PUBLIC "-//W3C//DTD SVG 1.1//EN" "http://www.w3.org/Graphics/SVG/1.1/DTD/svg11.dtd">
<svg version="1.1" id="Layer_1" xmlns="http://www.w3.org/2000/svg" xmlns:xlink="http://www.w3.org/1999/xlink" x="0px" y="0px"
	 width="612px" height="202.666px" viewBox="0 0 612 202.666" enable-background="new 0 0 612 202.666" xml:space="preserve">
<g>
	<g>
		<path fill="#FFFFFF" d="M230.686,159.219c1.266,0.632,2.11,1.266,2.743,2.32c0.633,1.056,1.056,2.32,1.056,3.587
			c0,1.478-0.422,2.532-1.056,3.587c-0.632,1.056-1.688,1.898-2.743,2.321c-1.267,0.633-2.743,0.843-4.431,0.843h-3.798v5.276
			h-4.433v-18.78h8.229C228.154,158.374,229.42,158.585,230.686,159.219z M229.209,167.448c0.633-0.634,1.056-1.267,1.056-2.321
			c0-1.056-0.422-1.898-1.056-2.531c-0.633-0.635-1.688-0.846-2.954-0.846h-3.587v6.541h3.587
			C227.521,168.291,228.365,168.08,229.209,167.448z"/>
		<path fill="#FFFFFF" d="M264.657,173.567v3.587h-14.56v-18.78h14.137v3.587h-9.917v4.01h8.651v3.377h-8.651v4.221L264.657,173.567
			L264.657,173.567z"/>
		<path fill="#FFFFFF" d="M297.575,158.374v18.78h-3.588l-9.284-11.395v11.395h-4.221v-18.78h3.587l9.285,11.396v-11.396H297.575z"
			/>
		<path fill="#FFFFFF" d="M318.254,176.099c-1.479-0.845-2.743-1.899-3.588-3.376c-0.844-1.478-1.266-3.165-1.266-5.063
			c0-1.899,0.422-3.588,1.266-5.063c0.845-1.479,2.109-2.532,3.588-3.376c1.478-0.846,3.376-1.268,5.274-1.268
			c1.688,0,3.165,0.211,4.432,0.845s2.321,1.478,3.376,2.532l-2.742,2.531c-1.268-1.479-2.743-2.11-4.644-2.11
			c-1.266,0-2.108,0.211-3.165,0.846c-0.844,0.422-1.688,1.266-2.109,2.108c-0.422,0.845-0.845,1.899-0.845,3.165
			c0,1.268,0.212,2.11,0.845,3.166c0.422,0.843,1.267,1.688,2.109,2.109c0.845,0.423,1.899,0.844,3.165,0.844
			c1.899,0,3.376-0.844,4.644-2.32l2.742,2.531c-0.844,1.056-2.109,1.899-3.376,2.532c-1.267,0.634-2.743,0.845-4.432,0.845
			C321.63,177.365,319.732,176.943,318.254,176.099z"/>
		<path fill="#FFFFFF" d="M346.529,158.374h4.432v18.78h-4.432V158.374z"/>
		<path fill="#FFFFFF" d="M367.629,158.374h4.433v15.193h9.494v3.587H367.84v-18.78H367.629z"/>
		<path fill="#FFFFFF" d="M398.015,176.731c-1.478-0.422-2.531-0.844-3.376-1.478l1.478-3.376c0.844,0.634,1.688,1.056,2.954,1.479
			c1.266,0.422,2.321,0.632,3.376,0.632c1.267,0,2.11-0.21,2.743-0.632c0.633-0.423,0.844-0.845,0.844-1.479
			c0-0.422-0.211-0.844-0.421-1.055c-0.423-0.212-0.845-0.634-1.268-0.634c-0.634-0.211-1.267-0.422-2.32-0.633
			c-1.479-0.422-2.532-0.634-3.587-1.056c-1.055-0.423-1.688-0.844-2.321-1.688c-0.634-0.845-1.055-1.688-1.055-2.954
			c0-1.055,0.211-2.11,0.843-2.954c0.634-0.844,1.479-1.688,2.744-2.109c1.266-0.423,2.743-0.845,4.431-0.845
			c1.267,0,2.321,0.211,3.587,0.422c1.267,0.211,2.11,0.634,2.955,1.267l-1.267,3.377c-1.688-1.057-3.376-1.478-5.275-1.478
			c-1.267,0-2.108,0.21-2.743,0.632c-0.633,0.424-0.844,0.846-0.844,1.479s0.422,1.055,1.055,1.478
			c0.635,0.422,1.688,0.632,3.165,0.844c1.479,0.423,2.532,0.634,3.589,1.056c1.055,0.423,1.688,0.844,2.32,1.688
			c0.632,0.634,1.056,1.688,1.056,2.954c0,1.056-0.212,2.11-0.846,2.954c-0.632,0.844-1.477,1.688-2.742,2.109
			c-1.267,0.423-2.743,0.845-4.432,0.845C400.758,177.365,399.491,177.154,398.015,176.731z"/>
	</g>
	<g>
		<polygon fill="#FFFFFF" points="53.862,25.65 4.275,25.65 28.963,67.853 		"/>
		<polygon fill="#FFFFFF" points="95.219,25.65 49.642,103.091 73.696,143.814 143.117,25.65 		"/>
	</g>
	<path fill="#FFFFFF" d="M220.136,100.769l33.761-75.118h18.569l-52.33,118.164L169.704,25.65h18.568L220.136,100.769z"/>
	<path fill="#FFFFFF" d="M387.042,18.265v125.972H371.85v-9.706c-6.962,5.908-15.825,9.706-25.742,9.706
		c-22.367,0-40.725-19.201-40.725-42.412s18.356-41.991,40.936-41.991c9.917,0,18.78,3.377,25.743,9.285V31.981L387.042,18.265z
		 M371.85,105.411v-6.963c-1.267-13.082-12.238-23.21-25.742-23.21c-14.349,0-25.954,12.026-25.954,26.798
		s11.605,26.799,25.954,26.799C359.612,128.622,370.583,118.494,371.85,105.411z"/>
	<path fill="#FFFFFF" d="M514.07,60.468v82.926c0,13.505-6.119,25.531-15.825,33.128c-7.175,5.485-15.614,8.862-25.109,8.862
		c-14.35,0-26.376-7.386-33.973-18.568l9.073-15.614c3.376,10.972,13.293,18.99,24.898,18.99c12.026,0,21.943-8.44,25.109-19.412
		v-14.349v-1.478c-0.423,0-0.211,0.211-0.634,0.211c-6.751,5.908-15.403,9.284-25.109,9.284c-9.283,0-17.514-3.165-24.266-8.019
		c-4.643-3.588-8.02-7.809-10.973-12.45c-3.587-6.541-5.697-13.715-5.697-21.522c0-23,18.356-41.78,40.936-41.78
		c9.495,0,18.568,3.377,25.743,9.496v-9.496h15.825L514.07,60.468L514.07,60.468z M488.959,122.714
		c3.799-3.376,6.54-7.807,8.439-12.87c0.211-1.267,0.422-2.745,0.845-11.185c-1.898-12.872-12.45-23.211-25.743-23.211
		c-14.56,0-26.165,12.027-26.165,26.798c0,2.954,0.422,5.697,1.268,8.44c1.897,5.274,4.642,9.495,8.65,12.66
		c4.643,3.799,9.917,5.486,16.247,5.486C479.041,128.834,484.529,126.513,488.959,122.714z M448.656,150.567l-0.421,0.422v-0.422
		H448.656z"/>
	<path fill="#FFFFFF" d="M606.49,102.246c0,23.421-18.357,41.99-40.725,41.99c-22.578,0-40.937-18.568-40.937-41.99
		c0-23.211,18.357-41.991,40.937-41.991C588.133,60.468,606.49,79.035,606.49,102.246z M591.721,102.246
		c0-14.56-11.605-26.587-25.954-26.587c-14.561,0-26.165,12.027-26.165,26.587c0,14.561,11.604,26.587,26.165,26.587
		C580.115,128.834,591.721,117.017,591.721,102.246z"/>
	<polygon fill="#FFFFFF" points="403.078,54.347 417.64,54.347 410.252,41.898 	"/>
	<rect x="402.867" y="60.257" fill="#FFFFFF" width="15.192" height="75.539"/>
	<rect x="402.867" y="138.962" fill="#FFFFFF" width="15.192" height="5.063"/>
	<polygon fill="#FFFFFF" points="276.263,56.669 290.823,56.669 283.649,44.431 	"/>
	<rect x="276.052" y="62.577" fill="#FFFFFF" width="15.192" height="75.54"/>
	<rect x="276.052" y="141.493" fill="#FFFFFF" width="15.192" height="5.064"/>
</g>
<g>
	<path fill-rule="evenodd" clip-rule="evenodd" fill="#FFFFFF" d="M596.63,53.368c-6.37-0.007-11.506-5.163-11.495-11.54
		c0.011-6.369,5.168-11.502,11.547-11.489c6.368,0.013,11.498,5.174,11.482,11.554C608.149,48.249,602.995,53.375,596.63,53.368z
		 M606.391,41.865c-0.038-5.413-4.311-9.708-9.668-9.744c-5.465-0.036-9.767,4.301-9.805,9.65c-0.041,5.47,4.304,9.786,9.671,9.814
		C602.051,51.614,606.345,47.262,606.391,41.865z"/>
	<path fill-rule="evenodd" clip-rule="evenodd" fill="#FFFFFF" d="M601.082,47.168c-0.573,0-1.115,0.01-1.656-0.01
		c-0.077-0.003-0.18-0.133-0.219-0.226c-0.417-1.021-0.829-2.043-1.225-3.071c-0.075-0.193-0.171-0.242-0.362-0.239
		c-0.903,0.009-1.806,0.004-2.737,0.004c0,1.185,0,2.351,0,3.529c-0.601,0-1.168,0-1.758,0c0-3.528,0-7.056,0-10.617
		c0.099,0,0.195,0,0.293,0c1.643,0,3.286,0.021,4.928-0.005c2.06-0.033,3.813,1.611,3.604,3.896
		c-0.135,1.455-0.942,2.457-2.348,3.02C600.091,44.678,600.581,45.908,601.082,47.168z M594.89,41.852
		c1.1,0,2.167,0.004,3.235-0.002c0.236-0.002,0.478-0.013,0.712-0.054c0.868-0.158,1.497-1.098,1.325-1.962
		c-0.198-1.005-0.826-1.521-1.851-1.522c-1.04,0-2.082,0-3.123,0c-0.098,0-0.195,0-0.299,0
		C594.89,39.506,594.89,40.663,594.89,41.852z"/>
</g>
</svg>
