<?xml version="1.0" encoding="utf-8"?>
<!-- Generator: Adobe Illustrator 16.0.0, SVG Export Plug-In . SVG Version: 6.00 Build 0)  -->
<!DOCTYPE svg PUBLIC "-//W3C//DTD SVG 1.1//EN" "http://www.w3.org/Graphics/SVG/1.1/DTD/svg11.dtd">
<svg version="1.1" id="Layer_1" xmlns="http://www.w3.org/2000/svg" xmlns:xlink="http://www.w3.org/1999/xlink" x="0px" y="0px"
	 width="595.279px" height="183.333px" viewBox="0 330.112 595.279 183.333" enable-background="new 0 330.112 595.279 183.333"
	 xml:space="preserve">
<g>
	<g>
		<g>
			<path fill="#F07F21" d="M226.397,475.917c1.19,0.596,1.984,1.19,2.58,2.183c0.595,0.992,0.992,2.183,0.992,3.373
				c0,1.39-0.397,2.382-0.992,3.374c-0.596,0.992-1.588,1.785-2.58,2.183c-1.19,0.595-2.579,0.793-4.167,0.793h-3.571v4.961h-4.167
				v-17.66h7.738C224.016,475.123,225.206,475.322,226.397,475.917z M225.008,483.656c0.596-0.596,0.992-1.191,0.992-2.184
				s-0.396-1.785-0.992-2.381c-0.596-0.595-1.588-0.794-2.778-0.794h-3.373v6.151h3.373
				C223.42,484.449,224.214,484.251,225.008,483.656z"/>
			<path fill="#F07F21" d="M258.344,489.41v3.373h-13.691v-17.66h13.294v3.374h-9.325v3.77h8.135v3.175h-8.135v3.969H258.344z"/>
			<path fill="#F07F21" d="M289.298,475.123v17.66h-3.373l-8.73-10.715v10.715h-3.969v-17.66h3.373l8.73,10.716v-10.716H289.298z"/>
			<path fill="#F07F21" d="M308.744,491.791c-1.39-0.793-2.58-1.785-3.374-3.175c-0.793-1.389-1.19-2.977-1.19-4.762
				c0-1.786,0.397-3.374,1.19-4.763c0.794-1.389,1.984-2.381,3.374-3.175c1.389-0.794,3.175-1.19,4.96-1.19
				c1.588,0,2.977,0.198,4.167,0.794c1.19,0.595,2.183,1.389,3.175,2.381l-2.579,2.381c-1.19-1.389-2.58-1.984-4.365-1.984
				c-1.19,0-1.984,0.199-2.977,0.794c-0.794,0.397-1.588,1.19-1.984,1.984s-0.794,1.786-0.794,2.977s0.198,1.984,0.794,2.977
				c0.396,0.793,1.19,1.587,1.984,1.984c0.794,0.396,1.786,0.793,2.977,0.793c1.785,0,3.175-0.793,4.365-2.183l2.579,2.382
				c-0.793,0.992-1.984,1.785-3.175,2.381c-1.19,0.595-2.579,0.794-4.167,0.794C311.919,492.981,310.133,492.585,308.744,491.791z"
				/>
			<path fill="#F07F21" d="M335.333,475.123h4.167v17.66h-4.167V475.123z"/>
			<path fill="#F07F21" d="M355.176,475.123h4.167v14.287h8.929v3.373h-12.897v-17.66H355.176z"/>
			<path fill="#F07F21" d="M383.749,492.387c-1.389-0.397-2.381-0.794-3.175-1.389l1.389-3.176c0.794,0.596,1.588,0.992,2.778,1.39
				c1.19,0.396,2.183,0.595,3.175,0.595c1.19,0,1.984-0.198,2.579-0.595c0.596-0.397,0.794-0.794,0.794-1.39
				c0-0.396-0.198-0.793-0.396-0.991c-0.397-0.199-0.794-0.596-1.19-0.596c-0.596-0.198-1.191-0.396-2.183-0.596
				c-1.39-0.396-2.382-0.595-3.374-0.992c-0.992-0.396-1.587-0.793-2.183-1.587c-0.595-0.794-0.992-1.588-0.992-2.778
				c0-0.992,0.198-1.984,0.794-2.777c0.596-0.794,1.389-1.588,2.579-1.984c1.191-0.397,2.58-0.794,4.167-0.794
				c1.191,0,2.184,0.198,3.374,0.396c1.19,0.199,1.984,0.596,2.777,1.191l-1.19,3.175c-1.587-0.992-3.175-1.39-4.961-1.39
				c-1.19,0-1.983,0.198-2.579,0.596c-0.596,0.396-0.794,0.794-0.794,1.389c0,0.596,0.397,0.992,0.992,1.389
				c0.596,0.397,1.588,0.596,2.977,0.794c1.389,0.397,2.381,0.596,3.373,0.992c0.992,0.397,1.588,0.794,2.183,1.588
				c0.596,0.595,0.992,1.587,0.992,2.777c0,0.992-0.198,1.984-0.793,2.778c-0.596,0.794-1.39,1.587-2.58,1.984
				c-1.19,0.396-2.579,0.794-4.167,0.794C386.328,492.981,385.138,492.783,383.749,492.387z"/>
		</g>
		<g>
			<polygon fill="#2C527C" points="60.115,350.313 13.486,350.313 36.701,389.999 			"/>
			<polygon fill="#F07F21" points="99.007,350.313 56.147,423.136 78.768,461.432 144.05,350.313 			"/>
		</g>
		<path fill="#2C527C" d="M216.476,420.953l31.748-70.64h17.462l-49.21,111.119l-47.424-111.119h17.461L216.476,420.953z"/>
		<path fill="#2C527C" d="M373.431,343.368v118.461h-14.286v-9.128c-6.549,5.556-14.883,9.128-24.209,9.128
			c-21.033,0-38.296-18.057-38.296-39.884s17.263-39.487,38.495-39.487c9.326,0,17.659,3.175,24.208,8.731v-34.923L373.431,343.368z
			 M359.145,425.318v-6.548c-1.191-12.303-11.509-21.827-24.209-21.827c-13.492,0-24.406,11.311-24.406,25.2
			s10.914,25.2,24.406,25.2C347.636,447.146,357.953,437.621,359.145,425.318z"/>
		<path fill="#2C527C" d="M492.884,383.053v77.982c0,12.699-5.755,24.01-14.882,31.153c-6.747,5.159-14.684,8.334-23.613,8.334
			c-13.493,0-24.803-6.945-31.946-17.462l8.532-14.684c3.175,10.318,12.501,17.858,23.414,17.858
			c11.311,0,20.637-7.938,23.613-18.255v-13.493v-1.39c-0.397,0-0.198,0.199-0.596,0.199c-6.35,5.556-14.485,8.73-23.612,8.73
			c-8.731,0-16.47-2.977-22.819-7.54c-4.365-3.374-7.54-7.342-10.318-11.707c-3.373-6.151-5.357-12.898-5.357-20.24
			c0-21.628,17.263-39.288,38.495-39.288c8.929,0,17.461,3.175,24.208,8.929v-8.929h14.882V383.053z M469.271,441.589
			c3.572-3.175,6.151-7.342,7.938-12.104c0.198-1.19,0.396-2.579,0.794-10.517c-1.786-12.104-11.707-21.827-24.208-21.827
			c-13.691,0-24.605,11.311-24.605,25.2c0,2.778,0.397,5.357,1.19,7.938c1.786,4.96,4.366,8.929,8.136,11.905
			c4.365,3.571,9.326,5.159,15.279,5.159C459.946,447.344,465.104,445.161,469.271,441.589z M431.371,467.781l-0.396,0.397v-0.397
			H431.371z"/>
		<path fill="#2C527C" d="M579.795,422.342c0,22.025-17.264,39.487-38.297,39.487c-21.231,0-38.494-17.462-38.494-39.487
			c0-21.827,17.263-39.487,38.494-39.487C562.531,383.053,579.795,400.515,579.795,422.342z M565.905,422.342
			c0-13.691-10.913-25.001-24.406-25.001c-13.691,0-24.604,11.31-24.604,25.001s10.913,25.002,24.604,25.002
			C554.991,447.344,565.905,436.231,565.905,422.342z"/>
		<polygon fill="#F07F21" points="388.512,377.299 402.203,377.299 395.258,365.592 		"/>
		<rect x="388.313" y="382.855" fill="#2C527C" width="14.287" height="71.037"/>
		<rect x="388.313" y="456.868" fill="#2C527C" width="14.287" height="4.763"/>
		<polygon fill="#F07F21" points="269.257,379.482 282.948,379.482 276.202,367.973 		"/>
		<rect x="269.059" y="385.038" fill="#2C527C" width="14.287" height="71.037"/>
		<rect x="269.059" y="459.249" fill="#2C527C" width="14.287" height="4.763"/>
	</g>
	<g>
		<path fill-rule="evenodd" clip-rule="evenodd" d="M568.709,376.63c-6.37-0.007-11.506-5.164-11.495-11.54
			c0.011-6.37,5.168-11.502,11.547-11.49c6.368,0.013,11.498,5.174,11.482,11.554C580.228,371.511,575.074,376.637,568.709,376.63z
			 M578.47,365.126c-0.038-5.413-4.311-9.707-9.668-9.744c-5.465-0.036-9.767,4.301-9.805,9.65c-0.041,5.47,4.304,9.786,9.671,9.814
			C574.13,374.876,578.424,370.524,578.47,365.126z"/>
		<path fill-rule="evenodd" clip-rule="evenodd" d="M573.161,370.43c-0.573,0-1.115,0.009-1.656-0.011
			c-0.077-0.002-0.18-0.133-0.219-0.225c-0.417-1.02-0.829-2.043-1.225-3.072c-0.075-0.193-0.171-0.242-0.362-0.239
			c-0.903,0.008-1.806,0.004-2.737,0.004c0,1.185,0,2.351,0,3.529c-0.601,0-1.168,0-1.758,0c0-3.528,0-7.056,0-10.617
			c0.099,0,0.195,0,0.293,0c1.643,0,3.286,0.021,4.928-0.005c2.06-0.033,3.813,1.611,3.604,3.896
			c-0.135,1.455-0.942,2.457-2.348,3.019C572.17,367.939,572.66,369.17,573.161,370.43z M566.969,365.114
			c1.1,0,2.167,0.004,3.235-0.002c0.236-0.002,0.478-0.013,0.712-0.054c0.868-0.158,1.497-1.098,1.325-1.962
			c-0.198-1.005-0.826-1.521-1.851-1.522c-1.04,0-2.082,0-3.123,0c-0.098,0-0.195,0-0.299,0
			C566.969,362.768,566.969,363.924,566.969,365.114z"/>
	</g>
</g>
</svg>
